{
    "patcher": {
        "fileversion": 1,
        "appversion": {
            "major": 9,
            "minor": 1,
            "revision": 2,
            "architecture": "x64",
            "modernui": 1
        },
        "classnamespace": "box",
        "rect": [ 232.0, 87.0, 1151.0, 668.0 ],
        "boxes": [
            {
                "box": {
                    "id": "obj-34",
                    "maxclass": "newobj",
                    "numinlets": 1,
                    "numoutlets": 1,
                    "outlettype": [ "int" ],
                    "patching_rect": [ 976.0, 663.0, 22.0, 22.0 ],
                    "text": "t 1"
                }
            },
            {
                "box": {
                    "id": "obj-33",
                    "maxclass": "newobj",
                    "numinlets": 1,
                    "numoutlets": 2,
                    "outlettype": [ "int", "int" ],
                    "patching_rect": [ 1029.5, 663.0, 32.0, 22.0 ],
                    "text": "t 0 0"
                }
            },
            {
                "box": {
                    "fontname": "Courier New",
                    "fontsize": 72.0,
                    "id": "obj-32",
                    "maxclass": "comment",
                    "numinlets": 1,
                    "numoutlets": 0,
                    "patching_rect": [ 985.0, 962.0, 370.0, 88.0 ],
                    "presentation": 1,
                    "presentation_rect": [ 902.0, 130.0, 230.0, 88.0 ],
                    "text": "01:33"
                }
            },
            {
                "box": {
                    "id": "obj-27",
                    "maxclass": "newobj",
                    "numinlets": 2,
                    "numoutlets": 1,
                    "outlettype": [ "" ],
                    "patching_rect": [ 985.0, 922.0, 122.0, 22.0 ],
                    "text": "sprintf set %.2d:%.2d"
                }
            },
            {
                "box": {
                    "id": "obj-22",
                    "maxclass": "newobj",
                    "numinlets": 2,
                    "numoutlets": 1,
                    "outlettype": [ "" ],
                    "patching_rect": [ 994.0, 852.0, 46.0, 22.0 ],
                    "text": "pack i i"
                }
            },
            {
                "box": {
                    "id": "obj-20",
                    "maxclass": "newobj",
                    "numinlets": 2,
                    "numoutlets": 1,
                    "outlettype": [ "int" ],
                    "patching_rect": [ 1041.0, 812.0, 36.0, 22.0 ],
                    "text": "% 60"
                }
            },
            {
                "box": {
                    "id": "obj-17",
                    "maxclass": "newobj",
                    "numinlets": 2,
                    "numoutlets": 1,
                    "outlettype": [ "int" ],
                    "patching_rect": [ 994.0, 812.0, 29.5, 22.0 ],
                    "text": "/ 60"
                }
            },
            {
                "box": {
                    "id": "obj-6",
                    "maxclass": "newobj",
                    "numinlets": 5,
                    "numoutlets": 4,
                    "outlettype": [ "int", "", "", "int" ],
                    "patching_rect": [ 998.0, 760.0, 61.0, 22.0 ],
                    "text": "counter"
                }
            },
            {
                "box": {
                    "id": "obj-1",
                    "maxclass": "newobj",
                    "numinlets": 2,
                    "numoutlets": 1,
                    "outlettype": [ "bang" ],
                    "patching_rect": [ 994.0, 713.0, 69.0, 22.0 ],
                    "text": "metro 1000"
                }
            },
            {
                "box": {
                    "id": "obj-26",
                    "maxclass": "newobj",
                    "numinlets": 2,
                    "numoutlets": 2,
                    "outlettype": [ "signal", "signal" ],
                    "patching_rect": [ 4.0, 465.0, 70.0, 22.0 ],
                    "text": "cpPan~ 0.5"
                }
            },
            {
                "box": {
                    "id": "obj-25",
                    "maxclass": "newobj",
                    "numinlets": 2,
                    "numoutlets": 2,
                    "outlettype": [ "signal", "signal" ],
                    "patching_rect": [ 80.0, 465.0, 76.0, 22.0 ],
                    "text": "cpPan~ 0.85"
                }
            },
            {
                "box": {
                    "id": "obj-24",
                    "maxclass": "newobj",
                    "numinlets": 1,
                    "numoutlets": 1,
                    "outlettype": [ "signal" ],
                    "patcher": {
                        "fileversion": 1,
                        "appversion": {
                            "major": 9,
                            "minor": 1,
                            "revision": 2,
                            "architecture": "x64",
                            "modernui": 1
                        },
                        "classnamespace": "box",
                        "rect": [ 59.0, 106.0, 1000.0, 780.0 ],
                        "boxes": [
                            {
                                "box": {
                                    "comment": "",
                                    "id": "obj-4",
                                    "index": 1,
                                    "maxclass": "outlet",
                                    "numinlets": 1,
                                    "numoutlets": 0,
                                    "patching_rect": [ 26.0, 548.0, 30.0, 30.0 ]
                                }
                            },
                            {
                                "box": {
                                    "comment": "",
                                    "id": "obj-3",
                                    "index": 1,
                                    "maxclass": "inlet",
                                    "numinlets": 0,
                                    "numoutlets": 1,
                                    "outlettype": [ "signal" ],
                                    "patching_rect": [ 26.0, 360.0, 30.0, 30.0 ]
                                }
                            },
                            {
                                "box": {
                                    "id": "obj-2",
                                    "maxclass": "newobj",
                                    "numinlets": 2,
                                    "numoutlets": 1,
                                    "outlettype": [ "signal" ],
                                    "patching_rect": [ 26.0, 456.0, 60.0, 22.0 ],
                                    "text": "cascade~"
                                }
                            },
                            {
                                "box": {
                                    "fontface": 0,
                                    "id": "obj-1",
                                    "maxclass": "filtergraph~",
                                    "nfilters": 3,
                                    "numinlets": 8,
                                    "numoutlets": 7,
                                    "outlettype": [ "list", "float", "float", "float", "float", "list", "int" ],
                                    "parameter_enable": 0,
                                    "patching_rect": [ 314.0, 245.0, 256.0, 128.0 ],
                                    "setfilter": [ 2, 5, 1, 0, 0, 2440.13232421875, 0.5471306443214417, 0.8685065507888794, 0.0, 0.0, 0.0, 0.0, 0.0, 0.0, 1, 1, 1, 0, 0, 7468.05224609375, 0.961105227470398, 0.7081648111343384, 0.0, 0.0, 0.0, 0.0, 0.0, 0.0, 0, 2, 1, 0, 0, 159.64620971679688, 1.0480691194534302, 0.6873210072517395, 0.0, 0.0, 0.0, 0.0, 0.0, 0.0 ]
                                }
                            },
                            {
                                "box": {
                                    "attr": "edit_filter",
                                    "id": "obj-5",
                                    "maxclass": "attrui",
                                    "numinlets": 1,
                                    "numoutlets": 1,
                                    "outlettype": [ "" ],
                                    "parameter_enable": 0,
                                    "patching_rect": [ 314.0, 149.0, 150.0, 22.0 ]
                                }
                            },
                            {
                                "box": {
                                    "attr": "edit_mode",
                                    "id": "obj-6",
                                    "maxclass": "attrui",
                                    "numinlets": 1,
                                    "numoutlets": 1,
                                    "outlettype": [ "" ],
                                    "parameter_enable": 0,
                                    "patching_rect": [ 314.0, 197.0, 150.0, 22.0 ]
                                }
                            },
                            {
                                "box": {
                                    "attr": "nfilters",
                                    "id": "obj-7",
                                    "maxclass": "attrui",
                                    "numinlets": 1,
                                    "numoutlets": 1,
                                    "outlettype": [ "" ],
                                    "parameter_enable": 0,
                                    "patching_rect": [ 314.0, 116.0, 150.0, 22.0 ]
                                }
                            }
                        ],
                        "lines": [
                            {
                                "patchline": {
                                    "destination": [ "obj-2", 1 ],
                                    "source": [ "obj-1", 0 ]
                                }
                            },
                            {
                                "patchline": {
                                    "destination": [ "obj-4", 0 ],
                                    "source": [ "obj-2", 0 ]
                                }
                            },
                            {
                                "patchline": {
                                    "destination": [ "obj-2", 0 ],
                                    "source": [ "obj-3", 0 ]
                                }
                            },
                            {
                                "patchline": {
                                    "destination": [ "obj-1", 0 ],
                                    "source": [ "obj-5", 0 ]
                                }
                            },
                            {
                                "patchline": {
                                    "destination": [ "obj-1", 0 ],
                                    "source": [ "obj-6", 0 ]
                                }
                            },
                            {
                                "patchline": {
                                    "destination": [ "obj-1", 0 ],
                                    "source": [ "obj-7", 0 ]
                                }
                            }
                        ]
                    },
                    "patching_rect": [ 176.0, 543.0, 41.0, 22.0 ],
                    "text": "p filter"
                }
            },
            {
                "box": {
                    "id": "obj-23",
                    "maxclass": "newobj",
                    "numinlets": 1,
                    "numoutlets": 1,
                    "outlettype": [ "int" ],
                    "patching_rect": [ 958.0, 40.0, 22.0, 22.0 ],
                    "text": "t 0"
                }
            },
            {
                "box": {
                    "id": "obj-18",
                    "maxclass": "newobj",
                    "numinlets": 2,
                    "numoutlets": 1,
                    "outlettype": [ "int" ],
                    "patching_rect": [ 403.0, 214.0, 29.5, 22.0 ],
                    "text": "+ 1"
                }
            },
            {
                "box": {
                    "fontsize": 14.0,
                    "id": "obj-14",
                    "maxclass": "live.tab",
                    "num_lines_patching": 2,
                    "num_lines_presentation": 1,
                    "numinlets": 1,
                    "numoutlets": 3,
                    "outlettype": [ "", "", "float" ],
                    "parameter_enable": 1,
                    "patching_rect": [ 411.0, 104.0, 350.0, 39.0 ],
                    "presentation": 1,
                    "presentation_rect": [ 318.0, 71.0, 461.0, 56.0 ],
                    "saved_attribute_attributes": {
                        "valueof": {
                            "parameter_enum": [ "A", "B", "C", "D", "E", "F", "G", "H", "I", "J" ],
                            "parameter_longname": "live.tab",
                            "parameter_mmax": 9,
                            "parameter_modmode": 0,
                            "parameter_shortname": "live.tab",
                            "parameter_type": 2,
                            "parameter_unitstyle": 9
                        }
                    },
                    "varname": "live.tab"
                }
            },
            {
                "box": {
                    "bgmode": 0,
                    "border": 0,
                    "clickthrough": 0,
                    "enablehscroll": 0,
                    "enablevscroll": 0,
                    "id": "obj-10",
                    "lockeddragscroll": 0,
                    "lockedsize": 0,
                    "maxclass": "bpatcher",
                    "name": "frPlayer.maxpat",
                    "numinlets": 1,
                    "numoutlets": 2,
                    "offset": [ 0.0, 0.0 ],
                    "outlettype": [ "signal", "bang" ],
                    "patching_rect": [ 4.0, 121.0, 294.17475324869156, 130.09708559513092 ],
                    "presentation": 1,
                    "presentation_rect": [ 13.0, 136.0, 294.17475324869156, 130.09708559513092 ],
                    "viewvisibility": 1
                }
            },
            {
                "box": {
                    "bgmode": 0,
                    "border": 0,
                    "clickthrough": 0,
                    "enablehscroll": 0,
                    "enablevscroll": 0,
                    "id": "obj-7",
                    "lockeddragscroll": 0,
                    "lockedsize": 0,
                    "maxclass": "bpatcher",
                    "name": "sineSynthChords.maxpat",
                    "numinlets": 2,
                    "numoutlets": 1,
                    "offset": [ 0.0, 0.0 ],
                    "outlettype": [ "signal" ],
                    "patching_rect": [ 75.0, 277.6019438505173, 421.3592175245285, 153.39805614948273 ],
                    "presentation": 1,
                    "presentation_rect": [ 318.0, 136.0, 421.0, 130.09708559513092 ],
                    "viewvisibility": 1
                }
            },
            {
                "box": {
                    "id": "obj-8",
                    "maxclass": "comment",
                    "numinlets": 1,
                    "numoutlets": 0,
                    "patching_rect": [ 1215.0, 235.0, 150.0, 20.0 ]
                }
            },
            {
                "box": {
                    "bgmode": 0,
                    "border": 0,
                    "clickthrough": 0,
                    "enablehscroll": 0,
                    "enablevscroll": 0,
                    "id": "obj-3",
                    "lockeddragscroll": 0,
                    "lockedsize": 0,
                    "maxclass": "bpatcher",
                    "name": "convolveFR.maxpat",
                    "numinlets": 1,
                    "numoutlets": 1,
                    "offset": [ 0.0, 0.0 ],
                    "outlettype": [ "signal" ],
                    "patching_rect": [ 176.0, 588.0, 145.66667038202286, 117.66666981577873 ],
                    "presentation": 1,
                    "presentation_rect": [ 752.0, 134.0, 146.0, 134.0 ],
                    "viewvisibility": 1
                }
            },
            {
                "box": {
                    "fontsize": 30.0,
                    "id": "obj-2",
                    "maxclass": "comment",
                    "numinlets": 1,
                    "numoutlets": 0,
                    "patching_rect": [ 20.000000596046448, 49.33333480358124, 319.3333428502083, 40.0 ],
                    "presentation": 1,
                    "presentation_rect": [ 20.0, 71.0, 505.0, 40.0 ],
                    "text": "Sam Wells"
                }
            },
            {
                "box": {
                    "bgmode": 0,
                    "border": 0,
                    "clickthrough": 0,
                    "enablehscroll": 0,
                    "enablevscroll": 0,
                    "id": "obj-101",
                    "lockeddragscroll": 0,
                    "lockedsize": 0,
                    "maxclass": "bpatcher",
                    "name": "tremeloTown.maxpat",
                    "numinlets": 2,
                    "numoutlets": 1,
                    "offset": [ 0.0, 0.0 ],
                    "outlettype": [ "signal" ],
                    "patching_rect": [ 348.0, 559.0, 472.0, 351.41026359796524 ],
                    "presentation": 1,
                    "presentation_rect": [ 669.0, 274.0, 469.0, 375.0 ],
                    "viewvisibility": 1
                }
            },
            {
                "box": {
                    "bubble": 1,
                    "bubbleside": 2,
                    "id": "obj-21",
                    "linecount": 4,
                    "maxclass": "comment",
                    "numinlets": 1,
                    "numoutlets": 0,
                    "patching_rect": [ 1078.0, 852.0, 113.0, 79.0 ],
                    "text": "If you like: Set Key Mapping to control \"Chord Trigger\" and \"Freeze\"",
                    "textjustification": 1
                }
            },
            {
                "box": {
                    "bubble": 1,
                    "bubbleside": 3,
                    "id": "obj-19",
                    "linecount": 4,
                    "maxclass": "comment",
                    "numinlets": 1,
                    "numoutlets": 0,
                    "patching_rect": [ 947.6635440587997, 460.74765998125076, 101.0, 64.0 ],
                    "text": "Here you can see your Key and MIDI mappings"
                }
            },
            {
                "box": {
                    "fontsize": 13.0,
                    "id": "obj-16",
                    "maxclass": "comment",
                    "numinlets": 1,
                    "numoutlets": 0,
                    "patching_rect": [ 226.00000673532486, 33.0, 113.33333671092987, 21.0 ],
                    "presentation": 1,
                    "presentation_rect": [ 20.0, 48.0, 231.0, 21.0 ],
                    "text": "version 260309a",
                    "textjustification": 2
                }
            },
            {
                "box": {
                    "id": "obj-13",
                    "maxclass": "newobj",
                    "numinlets": 1,
                    "numoutlets": 1,
                    "outlettype": [ "bang" ],
                    "patching_rect": [ 626.0, 6.0, 58.0, 22.0 ],
                    "text": "loadbang"
                }
            },
            {
                "box": {
                    "fontsize": 30.0,
                    "id": "obj-12",
                    "maxclass": "live.text",
                    "mode": 0,
                    "numinlets": 1,
                    "numoutlets": 2,
                    "outlettype": [ "", "" ],
                    "parameter_enable": 1,
                    "patching_rect": [ 631.0, 33.0, 107.0, 36.0 ],
                    "presentation": 1,
                    "presentation_rect": [ 791.0, 73.0, 107.0, 36.0 ],
                    "saved_attribute_attributes": {
                        "valueof": {
                            "parameter_enum": [ "val1", "val2" ],
                            "parameter_longname": "live.text",
                            "parameter_mmax": 1,
                            "parameter_modmode": 0,
                            "parameter_shortname": "live.text",
                            "parameter_type": 2
                        }
                    },
                    "text": "RESET",
                    "varname": "live.text"
                }
            },
            {
                "box": {
                    "id": "obj-11",
                    "maxclass": "newobj",
                    "numinlets": 2,
                    "numoutlets": 0,
                    "patching_rect": [ 24.0, 1052.0, 55.0, 22.0 ],
                    "text": "dac~ 1 2"
                }
            },
            {
                "box": {
                    "channels": 1,
                    "id": "obj-9",
                    "lastchannelcount": 0,
                    "maxclass": "live.gain~",
                    "numinlets": 1,
                    "numoutlets": 4,
                    "orientation": 1,
                    "outlettype": [ "signal", "", "float", "list" ],
                    "parameter_enable": 1,
                    "patching_rect": [ 24.0, 884.0, 136.0, 76.0 ],
                    "presentation": 1,
                    "presentation_rect": [ 17.5, 573.0, 609.0, 76.0 ],
                    "saved_attribute_attributes": {
                        "valueof": {
                            "parameter_longname": "live.gain~",
                            "parameter_mmax": 6.0,
                            "parameter_mmin": -70.0,
                            "parameter_modmode": 3,
                            "parameter_shortname": "live.gain~",
                            "parameter_type": 0,
                            "parameter_unitstyle": 4
                        }
                    },
                    "thickness": 40,
                    "varname": "live.gain~"
                }
            },
            {
                "box": {
                    "bgmode": 0,
                    "border": 0,
                    "clickthrough": 0,
                    "enablehscroll": 0,
                    "enablevscroll": 0,
                    "id": "obj-5",
                    "lockeddragscroll": 0,
                    "lockedsize": 0,
                    "maxclass": "bpatcher",
                    "name": "descendingChordProgression.maxpat",
                    "numinlets": 5,
                    "numoutlets": 1,
                    "offset": [ 0.0, 0.0 ],
                    "outlettype": [ "signal" ],
                    "patching_rect": [ 541.0, 196.74765998125076, 618.0, 262.0 ],
                    "presentation": 1,
                    "presentation_rect": [ 13.0, 274.0, 618.0, 262.0 ],
                    "viewvisibility": 1
                }
            },
            {
                "box": {
                    "fontface": 1,
                    "fontsize": 36.0,
                    "id": "obj-4",
                    "maxclass": "comment",
                    "numinlets": 1,
                    "numoutlets": 0,
                    "patching_rect": [ 20.000000596046448, 6.0, 223.33333998918533, 47.0 ],
                    "presentation": 1,
                    "presentation_rect": [ 20.0, 6.0, 652.0, 47.0 ],
                    "text": "Subsident"
                }
            }
        ],
        "lines": [
            {
                "patchline": {
                    "destination": [ "obj-6", 0 ],
                    "source": [ "obj-1", 0 ]
                }
            },
            {
                "patchline": {
                    "destination": [ "obj-26", 0 ],
                    "source": [ "obj-10", 0 ]
                }
            },
            {
                "patchline": {
                    "destination": [ "obj-34", 0 ],
                    "source": [ "obj-10", 1 ]
                }
            },
            {
                "patchline": {
                    "destination": [ "obj-24", 0 ],
                    "order": 0,
                    "source": [ "obj-101", 0 ]
                }
            },
            {
                "patchline": {
                    "destination": [ "obj-9", 0 ],
                    "order": 1,
                    "source": [ "obj-101", 0 ]
                }
            },
            {
                "patchline": {
                    "destination": [ "obj-10", 0 ],
                    "order": 4,
                    "source": [ "obj-12", 0 ]
                }
            },
            {
                "patchline": {
                    "destination": [ "obj-101", 1 ],
                    "order": 3,
                    "source": [ "obj-12", 0 ]
                }
            },
            {
                "patchline": {
                    "destination": [ "obj-23", 0 ],
                    "order": 1,
                    "source": [ "obj-12", 0 ]
                }
            },
            {
                "patchline": {
                    "destination": [ "obj-33", 0 ],
                    "order": 0,
                    "source": [ "obj-12", 0 ]
                }
            },
            {
                "patchline": {
                    "destination": [ "obj-5", 4 ],
                    "order": 2,
                    "source": [ "obj-12", 0 ]
                }
            },
            {
                "patchline": {
                    "destination": [ "obj-12", 0 ],
                    "source": [ "obj-13", 0 ]
                }
            },
            {
                "patchline": {
                    "destination": [ "obj-18", 0 ],
                    "source": [ "obj-14", 0 ]
                }
            },
            {
                "patchline": {
                    "destination": [ "obj-22", 0 ],
                    "source": [ "obj-17", 0 ]
                }
            },
            {
                "patchline": {
                    "destination": [ "obj-7", 1 ],
                    "source": [ "obj-18", 0 ]
                }
            },
            {
                "patchline": {
                    "destination": [ "obj-22", 1 ],
                    "source": [ "obj-20", 0 ]
                }
            },
            {
                "patchline": {
                    "destination": [ "obj-27", 0 ],
                    "source": [ "obj-22", 0 ]
                }
            },
            {
                "patchline": {
                    "destination": [ "obj-14", 0 ],
                    "source": [ "obj-23", 0 ]
                }
            },
            {
                "patchline": {
                    "destination": [ "obj-3", 0 ],
                    "source": [ "obj-24", 0 ]
                }
            },
            {
                "patchline": {
                    "destination": [ "obj-24", 0 ],
                    "source": [ "obj-25", 1 ]
                }
            },
            {
                "patchline": {
                    "destination": [ "obj-9", 0 ],
                    "source": [ "obj-25", 0 ]
                }
            },
            {
                "patchline": {
                    "destination": [ "obj-24", 0 ],
                    "source": [ "obj-26", 1 ]
                }
            },
            {
                "patchline": {
                    "destination": [ "obj-9", 0 ],
                    "source": [ "obj-26", 0 ]
                }
            },
            {
                "patchline": {
                    "destination": [ "obj-32", 0 ],
                    "source": [ "obj-27", 0 ]
                }
            },
            {
                "patchline": {
                    "destination": [ "obj-9", 0 ],
                    "source": [ "obj-3", 0 ]
                }
            },
            {
                "patchline": {
                    "destination": [ "obj-1", 0 ],
                    "source": [ "obj-33", 1 ]
                }
            },
            {
                "patchline": {
                    "destination": [ "obj-6", 3 ],
                    "source": [ "obj-33", 0 ]
                }
            },
            {
                "patchline": {
                    "destination": [ "obj-1", 0 ],
                    "source": [ "obj-34", 0 ]
                }
            },
            {
                "patchline": {
                    "destination": [ "obj-101", 0 ],
                    "source": [ "obj-5", 0 ]
                }
            },
            {
                "patchline": {
                    "destination": [ "obj-17", 0 ],
                    "order": 1,
                    "source": [ "obj-6", 0 ]
                }
            },
            {
                "patchline": {
                    "destination": [ "obj-20", 0 ],
                    "order": 0,
                    "source": [ "obj-6", 0 ]
                }
            },
            {
                "patchline": {
                    "destination": [ "obj-25", 0 ],
                    "source": [ "obj-7", 0 ]
                }
            },
            {
                "patchline": {
                    "destination": [ "obj-11", 1 ],
                    "order": 0,
                    "source": [ "obj-9", 0 ]
                }
            },
            {
                "patchline": {
                    "destination": [ "obj-11", 0 ],
                    "order": 1,
                    "source": [ "obj-9", 0 ]
                }
            }
        ],
        "parameters": {
            "obj-101::obj-133::obj-3": [ "button", "button", 0 ],
            "obj-101::obj-16": [ "live.text[4]", "live.text", 0 ],
            "obj-101::obj-166": [ "live.text[5]", "live.text", 0 ],
            "obj-101::obj-189": [ "Depth", "Depth", 0 ],
            "obj-101::obj-22": [ "Frequency", "Frequency", 0 ],
            "obj-101::obj-25": [ "Smoothing", "Smoothing", 0 ],
            "obj-101::obj-93": [ "Symmetry", "Symmetry", 0 ],
            "obj-10::obj-16": [ "live.text[7]", "live.text", 0 ],
            "obj-12": [ "live.text", "live.text", 0 ],
            "obj-14": [ "live.tab", "live.tab", 0 ],
            "obj-3::obj-24": [ "live.text[6]", "live.text", 0 ],
            "obj-5::obj-134": [ "slider", "slider", 0 ],
            "obj-5::obj-195": [ "live.text[1]", "live.text[1]", 0 ],
            "obj-5::obj-196": [ "live.numbox[2]", "live.numbox", 0 ],
            "obj-5::obj-2": [ "live.text[3]", "live.text", 0 ],
            "obj-5::obj-200": [ "live.numbox[3]", "live.numbox", 0 ],
            "obj-5::obj-201": [ "live.numbox[4]", "live.numbox", 0 ],
            "obj-5::obj-23": [ "slider[1]", "slider", 0 ],
            "obj-5::obj-83": [ "live.numbox", "live.numbox", 0 ],
            "obj-5::obj-85": [ "live.numbox[1]", "live.numbox", 0 ],
            "obj-7::obj-33": [ "live.button[2]", "live.button", 0 ],
            "obj-9": [ "live.gain~", "live.gain~", 0 ],
            "parameter_overrides": {
                "obj-101::obj-16": {
                    "parameter_longname": "live.text[4]"
                },
                "obj-101::obj-166": {
                    "parameter_longname": "live.text[5]"
                },
                "obj-10::obj-16": {
                    "parameter_longname": "live.text[7]"
                },
                "obj-3::obj-24": {
                    "parameter_longname": "live.text[6]"
                },
                "obj-5::obj-2": {
                    "parameter_longname": "live.text[3]"
                },
                "obj-7::obj-33": {
                    "parameter_longname": "live.button[2]"
                }
            },
            "inherited_shortname": 1
        },
        "parameter_map": {
            "key": {
                "live.button[1]": {
                    "srcname": "0.modifiers.35.code.key",
                    "min": 0.0,
                    "max": 1.0,
                    "flags": 1,
                    "trigger": 1
                }
            }
        },
        "autosave": 0
    }
}