{
    "patcher": {
        "fileversion": 1,
        "appversion": {
            "major": 9,
            "minor": 1,
            "revision": 2,
            "architecture": "x64",
            "modernui": 1
        },
        "classnamespace": "box",
        "rect": [ 659.0, 139.0, 527.0, 576.0 ],
        "openinpresentation": 1,
        "boxes": [
            {
                "box": {
                    "id": "obj-14",
                    "maxclass": "newobj",
                    "numinlets": 2,
                    "numoutlets": 1,
                    "outlettype": [ "int" ],
                    "patching_rect": [ 248.0, 422.0, 43.0, 22.0 ],
                    "text": "* 1000"
                }
            },
            {
                "box": {
                    "comment": "",
                    "id": "obj-13",
                    "index": 0,
                    "maxclass": "inlet",
                    "numinlets": 0,
                    "numoutlets": 1,
                    "outlettype": [ "" ],
                    "patching_rect": [ 432.0, 324.0, 30.0, 30.0 ]
                }
            },
            {
                "box": {
                    "id": "obj-12",
                    "maxclass": "newobj",
                    "numinlets": 1,
                    "numoutlets": 2,
                    "outlettype": [ "bang", "float" ],
                    "patching_rect": [ 196.5, 328.0, 29.5, 22.0 ],
                    "text": "t b f"
                }
            },
            {
                "box": {
                    "id": "obj-11",
                    "maxclass": "newobj",
                    "numinlets": 2,
                    "numoutlets": 1,
                    "outlettype": [ "float" ],
                    "patching_rect": [ 120.75, 364.0, 29.5, 22.0 ],
                    "text": "* 0."
                }
            },
            {
                "box": {
                    "id": "obj-10",
                    "maxclass": "newobj",
                    "numinlets": 2,
                    "numoutlets": 1,
                    "outlettype": [ "int" ],
                    "patching_rect": [ 309.0, 300.0, 29.5, 22.0 ],
                    "text": "% 2"
                }
            },
            {
                "box": {
                    "comment": "",
                    "id": "obj-9",
                    "index": 0,
                    "maxclass": "inlet",
                    "numinlets": 0,
                    "numoutlets": 1,
                    "outlettype": [ "" ],
                    "patching_rect": [ 303.0, 221.0, 30.0, 30.0 ]
                }
            },
            {
                "box": {
                    "id": "obj-8",
                    "maxclass": "newobj",
                    "numinlets": 0,
                    "numoutlets": 1,
                    "outlettype": [ "" ],
                    "patching_rect": [ 162.5, 219.0, 51.0, 22.0 ],
                    "text": "r #0_init"
                }
            },
            {
                "box": {
                    "id": "obj-6",
                    "maxclass": "newobj",
                    "numinlets": 0,
                    "numoutlets": 1,
                    "outlettype": [ "" ],
                    "patching_rect": [ 101.0, 78.0, 51.0, 22.0 ],
                    "text": "r #0_init"
                }
            },
            {
                "box": {
                    "id": "obj-4",
                    "maxclass": "newobj",
                    "numinlets": 1,
                    "numoutlets": 1,
                    "outlettype": [ "bang" ],
                    "patching_rect": [ 210.0, 67.0, 58.0, 22.0 ],
                    "text": "loadbang"
                }
            },
            {
                "box": {
                    "id": "obj-3",
                    "maxclass": "newobj",
                    "numinlets": 1,
                    "numoutlets": 0,
                    "patching_rect": [ 173.0, 107.0, 53.0, 22.0 ],
                    "text": "s #0_init"
                }
            },
            {
                "box": {
                    "id": "obj-7",
                    "maxclass": "comment",
                    "numinlets": 1,
                    "numoutlets": 0,
                    "patching_rect": [ 283.0, 60.0, 150.0, 20.0 ],
                    "presentation": 1,
                    "presentation_rect": [ 3.0, -1.0, 150.0, 20.0 ],
                    "text": "Field Recording"
                }
            },
            {
                "box": {
                    "comment": "",
                    "id": "obj-5",
                    "index": 0,
                    "maxclass": "outlet",
                    "numinlets": 1,
                    "numoutlets": 0,
                    "patching_rect": [ 101.0, 624.0, 30.0, 30.0 ]
                }
            },
            {
                "box": {
                    "id": "obj-26",
                    "maxclass": "live.meter~",
                    "numinlets": 1,
                    "numoutlets": 2,
                    "outlettype": [ "float", "int" ],
                    "patching_rect": [ 473.0, 554.0, 5.0, 100.0 ],
                    "presentation": 1,
                    "presentation_rect": [ 219.0, 21.0, 10.0, 101.0 ],
                    "slidercolor": [ 0.079348079365577, 0.07934804057877, 0.079348050547289, 1.0 ]
                }
            },
            {
                "box": {
                    "id": "obj-1",
                    "maxclass": "spectroscope~",
                    "monochrome": 0,
                    "numinlets": 2,
                    "numoutlets": 1,
                    "outlettype": [ "" ],
                    "patching_rect": [ 153.0, 554.0, 300.0, 100.0 ],
                    "presentation": 1,
                    "presentation_rect": [ 3.0, 21.0, 211.0, 100.0 ],
                    "range": [ 0.0, 0.125 ],
                    "sono": 1
                }
            },
            {
                "box": {
                    "id": "obj-51",
                    "maxclass": "newobj",
                    "numinlets": 1,
                    "numoutlets": 1,
                    "outlettype": [ "int" ],
                    "patching_rect": [ 101.0, 117.0, 22.0, 22.0 ],
                    "text": "t 0"
                }
            },
            {
                "box": {
                    "comment": "",
                    "id": "obj-49",
                    "index": 0,
                    "maxclass": "inlet",
                    "numinlets": 0,
                    "numoutlets": 1,
                    "outlettype": [ "" ],
                    "patching_rect": [ 173.0, 55.0, 30.0, 30.0 ]
                }
            },
            {
                "box": {
                    "id": "obj-216",
                    "maxclass": "newobj",
                    "numinlets": 2,
                    "numoutlets": 1,
                    "outlettype": [ "float" ],
                    "patching_rect": [ 121.0, 328.0, 54.0, 22.0 ],
                    "text": "f"
                }
            },
            {
                "box": {
                    "id": "obj-213",
                    "maxclass": "newobj",
                    "numinlets": 2,
                    "numoutlets": 1,
                    "outlettype": [ "float" ],
                    "patching_rect": [ 162.5, 278.0, 36.0, 22.0 ],
                    "text": "+ 0.9"
                }
            },
            {
                "box": {
                    "id": "obj-212",
                    "maxclass": "newobj",
                    "numinlets": 2,
                    "numoutlets": 1,
                    "outlettype": [ "" ],
                    "patching_rect": [ 162.5, 248.0, 69.0, 22.0 ],
                    "text": "random 0.4"
                }
            },
            {
                "box": {
                    "id": "obj-210",
                    "maxclass": "newobj",
                    "numinlets": 1,
                    "numoutlets": 1,
                    "outlettype": [ "signal" ],
                    "patching_rect": [ 115.0, 396.0, 41.0, 22.0 ],
                    "text": "sig~ 0"
                }
            },
            {
                "box": {
                    "id": "obj-209",
                    "maxclass": "newobj",
                    "numinlets": 2,
                    "numoutlets": 1,
                    "outlettype": [ "signal" ],
                    "patching_rect": [ 101.0, 512.0, 90.0, 22.0 ],
                    "text": "*~"
                }
            },
            {
                "box": {
                    "id": "obj-208",
                    "maxclass": "newobj",
                    "numinlets": 3,
                    "numoutlets": 1,
                    "outlettype": [ "signal" ],
                    "patching_rect": [ 172.0, 479.0, 112.0, 22.0 ],
                    "text": "trapezoid~ 0.01 0.2"
                }
            },
            {
                "box": {
                    "id": "obj-200",
                    "maxclass": "newobj",
                    "numinlets": 3,
                    "numoutlets": 2,
                    "outlettype": [ "signal", "signal" ],
                    "patching_rect": [ 101.0, 439.0, 90.0, 22.0 ],
                    "text": "groove~ #0_ref"
                }
            },
            {
                "box": {
                    "id": "obj-62",
                    "maxclass": "newobj",
                    "numinlets": 1,
                    "numoutlets": 2,
                    "outlettype": [ "float", "bang" ],
                    "patching_rect": [ 283.0, 97.0, 179.0, 22.0 ],
                    "text": "buffer~ #0_ref bev_snow_4.wav"
                }
            }
        ],
        "lines": [
            {
                "patchline": {
                    "destination": [ "obj-12", 0 ],
                    "source": [ "obj-10", 0 ]
                }
            },
            {
                "patchline": {
                    "destination": [ "obj-210", 0 ],
                    "source": [ "obj-11", 0 ]
                }
            },
            {
                "patchline": {
                    "destination": [ "obj-11", 1 ],
                    "source": [ "obj-12", 1 ]
                }
            },
            {
                "patchline": {
                    "destination": [ "obj-216", 0 ],
                    "source": [ "obj-12", 0 ]
                }
            },
            {
                "patchline": {
                    "destination": [ "obj-14", 0 ],
                    "source": [ "obj-13", 0 ]
                }
            },
            {
                "patchline": {
                    "destination": [ "obj-200", 0 ],
                    "source": [ "obj-14", 0 ]
                }
            },
            {
                "patchline": {
                    "destination": [ "obj-208", 0 ],
                    "source": [ "obj-200", 1 ]
                }
            },
            {
                "patchline": {
                    "destination": [ "obj-209", 0 ],
                    "source": [ "obj-200", 0 ]
                }
            },
            {
                "patchline": {
                    "destination": [ "obj-209", 1 ],
                    "source": [ "obj-208", 0 ]
                }
            },
            {
                "patchline": {
                    "destination": [ "obj-1", 0 ],
                    "order": 1,
                    "source": [ "obj-209", 0 ]
                }
            },
            {
                "patchline": {
                    "destination": [ "obj-26", 0 ],
                    "order": 0,
                    "source": [ "obj-209", 0 ]
                }
            },
            {
                "patchline": {
                    "destination": [ "obj-5", 0 ],
                    "order": 2,
                    "source": [ "obj-209", 0 ]
                }
            },
            {
                "patchline": {
                    "destination": [ "obj-200", 0 ],
                    "source": [ "obj-210", 0 ]
                }
            },
            {
                "patchline": {
                    "destination": [ "obj-213", 0 ],
                    "source": [ "obj-212", 0 ]
                }
            },
            {
                "patchline": {
                    "destination": [ "obj-216", 1 ],
                    "source": [ "obj-213", 0 ]
                }
            },
            {
                "patchline": {
                    "destination": [ "obj-11", 0 ],
                    "source": [ "obj-216", 0 ]
                }
            },
            {
                "patchline": {
                    "destination": [ "obj-3", 0 ],
                    "source": [ "obj-4", 0 ]
                }
            },
            {
                "patchline": {
                    "destination": [ "obj-3", 0 ],
                    "source": [ "obj-49", 0 ]
                }
            },
            {
                "patchline": {
                    "destination": [ "obj-51", 0 ],
                    "source": [ "obj-6", 0 ]
                }
            },
            {
                "patchline": {
                    "destination": [ "obj-212", 0 ],
                    "source": [ "obj-8", 0 ]
                }
            },
            {
                "patchline": {
                    "destination": [ "obj-10", 0 ],
                    "source": [ "obj-9", 0 ]
                }
            }
        ],
        "parameters": {
            "parameterbanks": {
                "0": {
                    "index": 0,
                    "name": "",
                    "parameters": [ "-", "-", "-", "-", "-", "-", "-", "-" ],
                    "buttons": [ "-", "-", "-", "-", "-", "-", "-", "-" ]
                }
            },
            "inherited_shortname": 1
        },
        "autosave": 0
    }
}