{
    "patcher": {
        "fileversion": 1,
        "appversion": {
            "major": 9,
            "minor": 1,
            "revision": 2,
            "architecture": "x64",
            "modernui": 1
        },
        "classnamespace": "box",
        "rect": [ 1078.0, 198.0, 944.0, 1097.0 ],
        "openinpresentation": 1,
        "boxes": [
            {
                "box": {
                    "id": "obj-9",
                    "maxclass": "comment",
                    "numinlets": 1,
                    "numoutlets": 0,
                    "patching_rect": [ 330.0, 210.0, 150.0, 20.0 ],
                    "presentation": 1,
                    "presentation_rect": [ 306.0, 112.0, 122.0, 20.0 ],
                    "text": "(chords will update)"
                }
            },
            {
                "box": {
                    "autofit": 1,
                    "forceaspect": 1,
                    "id": "obj-13",
                    "maxclass": "fpic",
                    "numinlets": 1,
                    "numoutlets": 1,
                    "outlettype": [ "jit_matrix" ],
                    "patching_rect": [ 333.0, 81.0, 100.0, 173.0769230769231 ],
                    "pic": "/Users/sam/Library/CloudStorage/Dropbox/Work/Projects/active/Subsident/Score/4x/chord1.png",
                    "presentation": 1,
                    "presentation_rect": [ 312.0, -15.0, 100.0, 173.0769230769231 ]
                }
            },
            {
                "box": {
                    "id": "obj-11",
                    "maxclass": "comment",
                    "numinlets": 1,
                    "numoutlets": 0,
                    "patching_rect": [ 15.0, 122.0, 150.0, 20.0 ],
                    "presentation": 1,
                    "presentation_rect": [ 3.5, 112.0, 96.0, 20.0 ],
                    "text": "Press and Hold"
                }
            },
            {
                "box": {
                    "id": "obj-10",
                    "maxclass": "comment",
                    "numinlets": 1,
                    "numoutlets": 0,
                    "patching_rect": [ 36.0, 22.0, 150.0, 20.0 ],
                    "presentation": 1,
                    "presentation_rect": [ 15.0, 3.0, 73.0, 20.0 ],
                    "text": "Sine Synth"
                }
            },
            {
                "box": {
                    "annotation": "Rehearsal Letter",
                    "comment": "",
                    "hint": "Rehearsal Letter",
                    "id": "obj-7",
                    "index": 0,
                    "maxclass": "inlet",
                    "numinlets": 0,
                    "numoutlets": 1,
                    "outlettype": [ "" ],
                    "patching_rect": [ 535.0, 81.0, 30.0, 30.0 ]
                }
            },
            {
                "box": {
                    "id": "obj-26",
                    "maxclass": "live.meter~",
                    "numinlets": 1,
                    "numoutlets": 2,
                    "outlettype": [ "float", "int" ],
                    "patching_rect": [ 473.0, 554.0, 5.0, 100.0 ],
                    "presentation": 1,
                    "presentation_rect": [ 294.0, 25.0, 10.0, 101.0 ],
                    "slidercolor": [ 0.079348079365577, 0.07934804057877, 0.079348050547289, 1.0 ]
                }
            },
            {
                "box": {
                    "automatic": 1,
                    "displaysinglechannel": 1,
                    "id": "obj-5",
                    "maxclass": "scope~",
                    "numinlets": 2,
                    "numoutlets": 0,
                    "patching_rect": [ 748.0, 573.0, 279.0, 105.0 ],
                    "presentation": 1,
                    "presentation_rect": [ 104.0, 25.0, 185.0, 101.0 ],
                    "style": "rnbohighcontrast"
                }
            },
            {
                "box": {
                    "id": "obj-2",
                    "maxclass": "live.scope~",
                    "numinlets": 2,
                    "numoutlets": 1,
                    "outlettype": [ "bang" ],
                    "patching_rect": [ 524.0, 677.0, 184.0, 68.0 ],
                    "samples": 441.0
                }
            },
            {
                "box": {
                    "comment": "",
                    "id": "obj-1",
                    "index": 0,
                    "maxclass": "outlet",
                    "numinlets": 1,
                    "numoutlets": 0,
                    "patching_rect": [ 95.0, 617.0, 30.0, 30.0 ]
                }
            },
            {
                "box": {
                    "id": "obj-51",
                    "maxclass": "newobj",
                    "numinlets": 1,
                    "numoutlets": 1,
                    "outlettype": [ "int" ],
                    "patching_rect": [ 313.0, 134.0, 22.0, 22.0 ],
                    "text": "t 0"
                }
            },
            {
                "box": {
                    "comment": "",
                    "id": "obj-49",
                    "index": 0,
                    "maxclass": "inlet",
                    "numinlets": 0,
                    "numoutlets": 1,
                    "outlettype": [ "" ],
                    "patching_rect": [ 313.0, 81.0, 30.0, 30.0 ]
                }
            },
            {
                "box": {
                    "id": "obj-35",
                    "maxclass": "newobj",
                    "numinlets": 1,
                    "numoutlets": 2,
                    "outlettype": [ "bang", "bang" ],
                    "patching_rect": [ 95.0, 437.0, 32.0, 22.0 ],
                    "text": "t b b"
                }
            },
            {
                "box": {
                    "id": "obj-34",
                    "maxclass": "newobj",
                    "numinlets": 3,
                    "numoutlets": 3,
                    "outlettype": [ "bang", "bang", "" ],
                    "patching_rect": [ 95.0, 389.0, 44.0, 22.0 ],
                    "text": "sel 1 0"
                }
            },
            {
                "box": {
                    "id": "obj-31",
                    "maxclass": "newobj",
                    "numinlets": 2,
                    "numoutlets": 1,
                    "outlettype": [ "int" ],
                    "patching_rect": [ 95.0, 343.0, 29.5, 22.0 ],
                    "text": "!- 1"
                }
            },
            {
                "box": {
                    "id": "obj-32",
                    "maxclass": "newobj",
                    "numinlets": 5,
                    "numoutlets": 4,
                    "outlettype": [ "int", "", "", "int" ],
                    "patching_rect": [ 95.0, 312.0, 61.0, 22.0 ],
                    "text": "counter 1"
                }
            },
            {
                "box": {
                    "id": "obj-33",
                    "maxclass": "live.button",
                    "numinlets": 1,
                    "numoutlets": 1,
                    "outlettype": [ "" ],
                    "parameter_enable": 1,
                    "patching_rect": [ 95.0, 260.0, 39.08331072330475, 38.333331644535065 ],
                    "presentation": 1,
                    "presentation_rect": [ 10.0, 25.0, 83.0, 82.0 ],
                    "saved_attribute_attributes": {
                        "valueof": {
                            "parameter_enum": [ "off", "on" ],
                            "parameter_longname": "live.button[1]",
                            "parameter_mmax": 1,
                            "parameter_modmode": 0,
                            "parameter_shortname": "live.button",
                            "parameter_type": 2
                        }
                    },
                    "transition": 2,
                    "varname": "live.button[1]"
                }
            },
            {
                "box": {
                    "id": "obj-24",
                    "maxclass": "message",
                    "numinlets": 2,
                    "numoutlets": 1,
                    "outlettype": [ "" ],
                    "patching_rect": [ 166.0, 472.0, 64.0, 22.0 ],
                    "text": "stopChord"
                }
            },
            {
                "box": {
                    "id": "obj-20",
                    "maxclass": "message",
                    "numinlets": 2,
                    "numoutlets": 1,
                    "outlettype": [ "" ],
                    "patching_rect": [ 95.0, 472.0, 63.0, 22.0 ],
                    "text": "playChord"
                }
            },
            {
                "box": {
                    "filename": "sineSynthChords.js",
                    "id": "obj-18",
                    "maxclass": "newobj",
                    "numinlets": 1,
                    "numoutlets": 1,
                    "outlettype": [ "" ],
                    "patching_rect": [ 95.0, 515.0, 128.0, 22.0 ],
                    "saved_object_attributes": {
                        "parameter_enable": 0
                    },
                    "text": "v8 sineSynthChords.js",
                    "textfile": {
                        "filename": "sineSynthChords.js",
                        "flags": 0,
                        "embed": 0,
                        "autowatch": 1
                    },
                    "varname": "v8_AA"
                }
            },
            {
                "box": {
                    "id": "obj-15",
                    "maxclass": "message",
                    "numinlets": 2,
                    "numoutlets": 1,
                    "outlettype": [ "" ],
                    "patching_rect": [ 358.0, 526.0, 49.0, 22.0 ],
                    "text": "target 0"
                }
            },
            {
                "box": {
                    "id": "obj-14",
                    "maxclass": "newobj",
                    "numinlets": 1,
                    "numoutlets": 2,
                    "outlettype": [ "", "bang" ],
                    "patching_rect": [ 337.0, 493.0, 40.0, 22.0 ],
                    "text": "t l b"
                }
            },
            {
                "box": {
                    "id": "obj-4",
                    "maxclass": "newobj",
                    "numinlets": 10,
                    "numoutlets": 1,
                    "outlettype": [ "" ],
                    "patching_rect": [ 337.0, 457.0, 113.5, 22.0 ],
                    "text": "pak f f f f f f f f f f"
                }
            },
            {
                "box": {
                    "id": "obj-3",
                    "maxclass": "newobj",
                    "numinlets": 2,
                    "numoutlets": 1,
                    "outlettype": [ "signal" ],
                    "patching_rect": [ 95.0, 557.0, 261.0, 22.0 ],
                    "text": "poly~ sineSynthPoly 5",
                    "varname": "poly~_AA"
                }
            },
            {
                "box": {
                    "attack_slope": -0.21220203054492673,
                    "attack_time": 1236.7683785246672,
                    "decay_slope": -0.3743236596163308,
                    "decay_time": 7165.932766148069,
                    "id": "obj-182",
                    "maxclass": "live.adsrui",
                    "numinlets": 10,
                    "numoutlets": 10,
                    "outlettype": [ "", "", "", "", "", "", "", "", "", "" ],
                    "patching_rect": [ 337.0, 338.0, 295.0, 86.0 ],
                    "peak": 0.31634746922024737,
                    "release_slope": 0.44433094994893096,
                    "release_time": 2312.623460022792,
                    "sustain": 0.08036935704514464
                }
            },
            {
                "box": {
                    "attr": "currentSet",
                    "id": "obj-42",
                    "maxclass": "attrui",
                    "numinlets": 1,
                    "numoutlets": 1,
                    "outlettype": [ "" ],
                    "parameter_enable": 0,
                    "patching_rect": [ 379.0, 493.0, 150.0, 22.0 ]
                }
            },
            {
                "box": {
                    "attr": "style",
                    "id": "obj-6",
                    "maxclass": "attrui",
                    "numinlets": 1,
                    "numoutlets": 1,
                    "outlettype": [ "" ],
                    "parameter_enable": 0,
                    "patching_rect": [ 748.0, 543.0, 150.0, 22.0 ]
                }
            }
        ],
        "lines": [
            {
                "patchline": {
                    "destination": [ "obj-15", 0 ],
                    "source": [ "obj-14", 1 ]
                }
            },
            {
                "patchline": {
                    "destination": [ "obj-3", 1 ],
                    "source": [ "obj-14", 0 ]
                }
            },
            {
                "patchline": {
                    "destination": [ "obj-3", 1 ],
                    "source": [ "obj-15", 0 ]
                }
            },
            {
                "patchline": {
                    "destination": [ "obj-3", 0 ],
                    "source": [ "obj-18", 0 ]
                }
            },
            {
                "patchline": {
                    "destination": [ "obj-4", 9 ],
                    "source": [ "obj-182", 9 ]
                }
            },
            {
                "patchline": {
                    "destination": [ "obj-4", 8 ],
                    "source": [ "obj-182", 8 ]
                }
            },
            {
                "patchline": {
                    "destination": [ "obj-4", 7 ],
                    "source": [ "obj-182", 7 ]
                }
            },
            {
                "patchline": {
                    "destination": [ "obj-4", 6 ],
                    "source": [ "obj-182", 6 ]
                }
            },
            {
                "patchline": {
                    "destination": [ "obj-4", 5 ],
                    "source": [ "obj-182", 5 ]
                }
            },
            {
                "patchline": {
                    "destination": [ "obj-4", 4 ],
                    "source": [ "obj-182", 4 ]
                }
            },
            {
                "patchline": {
                    "destination": [ "obj-4", 3 ],
                    "source": [ "obj-182", 3 ]
                }
            },
            {
                "patchline": {
                    "destination": [ "obj-4", 2 ],
                    "source": [ "obj-182", 2 ]
                }
            },
            {
                "patchline": {
                    "destination": [ "obj-4", 1 ],
                    "source": [ "obj-182", 1 ]
                }
            },
            {
                "patchline": {
                    "destination": [ "obj-4", 0 ],
                    "source": [ "obj-182", 0 ]
                }
            },
            {
                "patchline": {
                    "destination": [ "obj-18", 0 ],
                    "source": [ "obj-20", 0 ]
                }
            },
            {
                "patchline": {
                    "destination": [ "obj-18", 0 ],
                    "source": [ "obj-24", 0 ]
                }
            },
            {
                "patchline": {
                    "destination": [ "obj-1", 0 ],
                    "order": 3,
                    "source": [ "obj-3", 0 ]
                }
            },
            {
                "patchline": {
                    "destination": [ "obj-2", 0 ],
                    "order": 1,
                    "source": [ "obj-3", 0 ]
                }
            },
            {
                "patchline": {
                    "destination": [ "obj-26", 0 ],
                    "order": 2,
                    "source": [ "obj-3", 0 ]
                }
            },
            {
                "patchline": {
                    "destination": [ "obj-5", 0 ],
                    "order": 0,
                    "source": [ "obj-3", 0 ]
                }
            },
            {
                "patchline": {
                    "destination": [ "obj-34", 0 ],
                    "source": [ "obj-31", 0 ]
                }
            },
            {
                "patchline": {
                    "destination": [ "obj-31", 0 ],
                    "source": [ "obj-32", 0 ]
                }
            },
            {
                "patchline": {
                    "destination": [ "obj-32", 0 ],
                    "source": [ "obj-33", 0 ]
                }
            },
            {
                "patchline": {
                    "destination": [ "obj-24", 0 ],
                    "source": [ "obj-34", 1 ]
                }
            },
            {
                "patchline": {
                    "destination": [ "obj-35", 0 ],
                    "source": [ "obj-34", 0 ]
                }
            },
            {
                "patchline": {
                    "destination": [ "obj-182", 0 ],
                    "source": [ "obj-35", 1 ]
                }
            },
            {
                "patchline": {
                    "destination": [ "obj-20", 0 ],
                    "source": [ "obj-35", 0 ]
                }
            },
            {
                "patchline": {
                    "destination": [ "obj-14", 0 ],
                    "source": [ "obj-4", 0 ]
                }
            },
            {
                "patchline": {
                    "destination": [ "obj-18", 0 ],
                    "source": [ "obj-42", 0 ]
                }
            },
            {
                "patchline": {
                    "destination": [ "obj-51", 0 ],
                    "source": [ "obj-49", 0 ]
                }
            },
            {
                "patchline": {
                    "destination": [ "obj-24", 0 ],
                    "source": [ "obj-51", 0 ]
                }
            },
            {
                "patchline": {
                    "destination": [ "obj-5", 0 ],
                    "source": [ "obj-6", 0 ]
                }
            },
            {
                "patchline": {
                    "destination": [ "obj-42", 0 ],
                    "source": [ "obj-7", 0 ]
                }
            }
        ],
        "parameters": {
            "obj-33": [ "live.button[1]", "live.button", 0 ],
            "parameterbanks": {
                "0": {
                    "index": 0,
                    "name": "",
                    "parameters": [ "-", "-", "-", "-", "-", "-", "-", "-" ],
                    "buttons": [ "-", "-", "-", "-", "-", "-", "-", "-" ]
                }
            },
            "inherited_shortname": 1
        },
        "autosave": 0,
        "styles": [
            {
                "name": "MP-M4L",
                "default": {
                    "accentcolor": [ 0.411764705882353, 0.411764705882353, 0.411764705882353, 1.0 ],
                    "bgcolor": [ 0.098039215686275, 0.098039215686275, 0.098039215686275, 1.0 ],
                    "bgfillcolor": {
                        "color": [ 0.266666666666667, 0.266666666666667, 0.266666666666667, 1.0 ],
                        "color1": [ 0.376470588235294, 0.384313725490196, 0.4, 1.0 ],
                        "color2": [ 0.290196078431373, 0.309803921568627, 0.301960784313725, 1.0 ],
                        "dynamiccolor": [ 0.266666666666667, 0.266666666666667, 0.266666666666667, 1.0, "live_contrast_frame", 1, 0.266666666666667, 0.266666666666667, 0.266666666666667, 1.0, "Control Border" ],
                        "type": "color"
                    },
                    "color": [ 0.333333333333333, 0.870588235294118, 0.964705882352941, 1.0 ],
                    "editing_bgcolor": [ 0.56078431372549, 0.56078431372549, 0.56078431372549, 1.0 ],
                    "elementcolor": [ 0.313725490196078, 0.313725490196078, 0.313725490196078, 1.0 ],
                    "locked_bgcolor": [ 0.56078431372549, 0.56078431372549, 0.56078431372549, 1.0 ],
                    "patchlinecolor": [ 0.313725490196078, 0.313725490196078, 0.313725490196078, 1.0 ],
                    "selectioncolor": [ 1.0, 0.694117647058824, 0.0, 1.0 ],
                    "stripecolor": [ 0.313725490196078, 0.313725490196078, 0.313725490196078, 1.0 ],
                    "textcolor": [ 0.0, 0.0, 0.0, 1.0 ]
                },
                "parentstyle": "",
                "multi": 0
            },
            {
                "name": "rnbodefault",
                "default": {
                    "accentcolor": [ 0.343034118413925, 0.506230533123016, 0.86220508813858, 1.0 ],
                    "bgcolor": [ 0.031372549019608, 0.125490196078431, 0.211764705882353, 1.0 ],
                    "bgfillcolor": {
                        "angle": 270.0,
                        "autogradient": 0.0,
                        "color": [ 0.031372549019608, 0.125490196078431, 0.211764705882353, 1.0 ],
                        "color1": [ 0.031372549019608, 0.125490196078431, 0.211764705882353, 1.0 ],
                        "color2": [ 0.263682, 0.004541, 0.038797, 1.0 ],
                        "proportion": 0.39,
                        "type": "color"
                    },
                    "color": [ 0.929412, 0.929412, 0.352941, 1.0 ],
                    "elementcolor": [ 0.357540726661682, 0.515565991401672, 0.861786782741547, 1.0 ],
                    "fontname": [ "Lato" ],
                    "fontsize": [ 12.0 ],
                    "stripecolor": [ 0.258338063955307, 0.352425158023834, 0.511919498443604, 1.0 ],
                    "textcolor_inverse": [ 0.968627, 0.968627, 0.968627, 1 ]
                },
                "parentstyle": "",
                "multi": 0
            },
            {
                "name": "rnbohighcontrast",
                "default": {
                    "accentcolor": [ 0.666666666666667, 0.666666666666667, 0.666666666666667, 1.0 ],
                    "bgcolor": [ 0.0, 0.0, 0.0, 1.0 ],
                    "bgfillcolor": {
                        "angle": 270.0,
                        "autogradient": 0.0,
                        "color": [ 0.0, 0.0, 0.0, 1.0 ],
                        "color1": [ 0.090196078431373, 0.090196078431373, 0.090196078431373, 1.0 ],
                        "color2": [ 0.156862745098039, 0.168627450980392, 0.164705882352941, 1.0 ],
                        "proportion": 0.5,
                        "type": "color"
                    },
                    "clearcolor": [ 1.0, 1.0, 1.0, 0.0 ],
                    "color": [ 1.0, 0.874509803921569, 0.141176470588235, 1.0 ],
                    "editing_bgcolor": [ 0.258823529411765, 0.258823529411765, 0.258823529411765, 1.0 ],
                    "elementcolor": [ 0.223386004567146, 0.254748553037643, 0.998085916042328, 1.0 ],
                    "fontsize": [ 13.0 ],
                    "locked_bgcolor": [ 0.258823529411765, 0.258823529411765, 0.258823529411765, 1.0 ],
                    "selectioncolor": [ 0.301960784313725, 0.694117647058824, 0.949019607843137, 1.0 ],
                    "stripecolor": [ 0.258823529411765, 0.258823529411765, 0.258823529411765, 1.0 ],
                    "textcolor": [ 1.0, 1.0, 1.0, 1.0 ],
                    "textcolor_inverse": [ 1.0, 1.0, 1.0, 1.0 ]
                },
                "parentstyle": "",
                "multi": 0
            }
        ]
    }
}